PathFileType	4	(X/Y/Z)	E:\Qualisys_Data\Carbon_Farble_Plate\Data\Amateur_Runner\S14\T2\S14T2V25_c3d.trc
DataRate	CameraRate	NumFrames	NumMarkers	Units	OrigDataRate	OrigDataStartFrame	OrigNumFrames
200.000000	200.000000	4	39	mm	200.000000	198	317
Frame#	Time	LSHO			RSHO			LICST			RICST			LASIS			LHEEL			RASIS			LTROC			RTROC			SACR			LTH1			LSK4			LTH2			LTH3			RHM5			LSK2			LTH4			RTH1			LTOE			RTH2			RTH3			RTH4			LLEP			RLEP			LSK1			LSK3			RSK1			LHM5			RSK2			LFT1			RSK3			RSK4			LLME			RLME			RTOE			RHEEL			RFT1			RFT2			LFT2			
		X1	Y1	Z1	X2	Y2	Z2	X3	Y3	Z3	X4	Y4	Z4	X5	Y5	Z5	X6	Y6	Z6	X7	Y7	Z7	X8	Y8	Z8	X9	Y9	Z9	X10	Y10	Z10	X11	Y11	Z11	X12	Y12	Z12	X13	Y13	Z13	X14	Y14	Z14	X15	Y15	Z15	X16	Y16	Z16	X17	Y17	Z17	X18	Y18	Z18	X19	Y19	Z19	X20	Y20	Z20	X21	Y21	Z21	X22	Y22	Z22	X23	Y23	Z23	X24	Y24	Z24	X25	Y25	Z25	X26	Y26	Z26	X27	Y27	Z27	X28	Y28	Z28	X29	Y29	Z29	X30	Y30	Z30	X31	Y31	Z31	X32	Y32	Z32	X33	Y33	Z33	X34	Y34	Z34	X35	Y35	Z35	X36	Y36	Z36	X37	Y37	Z37	X38	Y38	Z38	X39	Y39	Z39	

199	0.99	754.495361328125	1407.072509765625	-500.3816223144531	829.6154174804688	1388.737182617188	-209.5092620849609	739.6646118164062	952.7630615234376	-489.7106018066406	760.1383056640625	952.13232421875	-212.4681549072266	784.0787963867188	903.9490966796876	-467.308349609375	563.658447265625	417.0703125	-407.4410400390625	785.41748046875	909.2455444335938	-231.2982635498047	667.131103515625	838.2943115234375	-519.5596923828125	637.41357421875	838.6224975585938	-186.5265502929688	610.5958251953125	954.85693359375	-358.7268676757812	869.5498657226562	688.6438598632812	-528.8723754882812	748.0797729492188	491.1025390625	-493.5322570800781	812.3473510742188	637.0767822265625	-513.3580322265625	940.0453491210938	617.8571166992188	-514.8080444335938	473.7543640136719	57.97811508178711	-242.5237579345703	834.2395629882812	535.5888671875	-515.346923828125	878.372314453125	568.2020874023438	-498.6628112792969	738.0519409179688	605.297607421875	-202.1414794921875	673.5027465820312	184.6354370117188	-445.7506713867188	662.4136962890625	619.9398193359375	-193.3175964355469	720.8873901367188	512.106201171875	-238.6908264160156	639.6204833984375	524.4860229492188	-220.4944763183594	923.2609252929688	543.0700073242188	-514.0233154296875	646.6397094726562	449.6595153808594	-233.7279815673828	874.9815063476562	463.3616027832031	-504.4740600585938	784.7210693359375	419.4483032226562	-488.2910461425781	604.7459716796875	332.0568237304688	-238.3014373779297	623.78955078125	238.7686614990234	-504.6037292480469	535.6839599609375	380.4457397460938	-223.1904754638672	542.7555541992188	394.4174499511719	-385.3262023925781	537.5894775390625	254.9661102294922	-256.0169372558594	478.9028930664062	304.5382385253906	-239.4490814208984	614.8056030273438	381.6891479492188	-472.2693176269531	390.5172119140625	154.0574035644531	-267.9221801757812	545.8968505859375	47.18206787109375	-308.54931640625	316.3185424804688	148.1125640869141	-321.6056823730469	321.0365905761719	115.0156707763672	-349.5716857910156	308.7844543457031	123.9686050415039	-294.3587341308594	535.5280151367188	401.827880859375	-439.89794921875
200	0.995	773.2730712890625	1411.99560546875	-500.4943237304688	851.7393798828125	1394.0966796875	-211.1715545654297	762.349853515625	957.587646484375	-489.4427185058594	784.5765380859375	956.2284545898438	-213.2634429931641	807.1636962890625	908.6007080078124	-467.533447265625	596.24853515625	404.1535034179688	-409.5888977050781	809.368408203125	912.7252807617188	-231.7884674072266	691.1654663085938	844.1004638671875	-520.6038208007812	660.6782836914062	842.8368530273438	-185.853271484375	634.2623901367188	959.0709228515624	-358.3598937988281	895.6371459960938	695.4769897460938	-528.4424438476562	777.520751953125	487.6961364746094	-493.8354797363281	838.5709838867188	643.41015625	-514.20068359375	966.6185913085938	625.3025512695312	-513.7005004882812	475.416748046875	58.92781448364258	-241.1089172363281	861.4110717773438	536.913330078125	-514.7600708007812	905.239013671875	574.713623046875	-499.1902770996094	754.2670288085938	608.2584838867188	-203.0194091796875	720.5059204101562	178.41259765625	-445.3406982421875	678.3798217773438	625.3992919921875	-191.7562408447266	733.9367065429688	515.9280395507812	-239.1603393554688	653.4264526367188	530.283447265625	-219.4692535400391	951.5736083984376	549.8518676757812	-514.004150390625	657.2594604492188	454.3771362304688	-233.1885375976562	905.9006958007812	466.0559387207031	-504.1921997070312	817.9009399414062	418.1890563964844	-488.9907836914062	615.2814331054688	337.0115051269531	-234.3577728271484	667.3179931640625	228.7527770996094	-505.0411682128906	545.0250854492188	387.3525695800781	-221.7870330810547	576.9562377929688	380.6271667480469	-387.9172973632812	545.4910888671875	261.3771057128906	-253.8276214599609	487.0890502929688	311.9497680664062	-237.6453399658203	649.8584594726562	370.8161315917969	-473.5621948242188	397.8480529785156	160.9574279785156	-266.0209350585938	547.1143188476562	46.98490142822266	-307.0333251953125	324.1598815917969	157.1669616699219	-319.6825256347656	327.5509948730469	124.8715896606445	-347.8588256835938	315.5418701171875	133.3011932373047	-292.6472778320312	569.6932373046875	386.4654235839844	-443.1413879394531
201	1.0	792.0934448242188	1416.855224609375	-500.4189758300781	873.5869140625	1399.233032226562	-212.6495971679688	786.2767944335938	963.0924072265624	-490.7269897460938	809.416015625	960.262451171875	-213.8714752197266	829.8472290039062	913.3558959960938	-467.601806640625	629.28466796875	391.0354919433594	-411.2979431152344	833.7586059570312	916.4541015625	-232.7978668212891	715.446044921875	849.5149536132812	-521.9224853515625	683.9053344726562	846.846435546875	-185.0186004638672	657.51416015625	962.9278564453124	-357.8156127929688	921.5410766601562	702.0671997070312	-528.2128295898438	807.1181030273438	483.9421691894531	-494.4487915039062	864.76025390625	649.4861450195312	-514.531494140625	992.4811401367188	632.3529052734375	-512.97998046875	478.7548828125	59.82704925537109	-240.1631011962891	888.527099609375	537.6121215820312	-514.3394775390625	931.8380737304688	580.9898071289062	-499.8354187011719	770.6259765625	611.7213134765625	-203.7988128662109	767.0410766601562	172.3984069824219	-445.3283386230469	695.6453247070312	630.651123046875	-191.0487976074219	747.2388916015625	519.8220825195312	-239.2458190917969	667.2404174804688	536.2459106445312	-218.649169921875	979.0552978515624	556.0966186523438	-514.1141967773438	668.837890625	460.3770141601562	-232.06494140625	935.3575439453124	470.5990600585938	-505.5364379882812	850.943115234375	416.4485473632812	-489.28125	622.6395874023438	344.6171264648438	-234.9795227050781	711.4822387695312	219.2139434814453	-505.52734375	554.6734008789062	394.1831359863281	-220.6457214355469	611.7257080078125	365.7667846679688	-389.8312072753906	553.6810913085938	268.0215759277344	-251.4866027832031	496.1417541503906	319.6211242675781	-236.4021453857422	685.5342407226562	360.4979858398438	-474.8796997070312	405.4866638183594	167.8041229248047	-264.1291809082031	548.83642578125	46.5723762512207	-305.35205078125	335.3205871582031	168.5609741210938	-317.9147033691406	335.4008178710938	135.4140930175781	-346.098876953125	323.3352661132812	143.6255950927734	-291.3757629394531	604.5188598632812	371.4470520019531	-445.2982482910156
202	1.005	811.2517700195312	1421.843017578125	-500.4576721191406	895.481689453125	1403.986328125	-214.4009552001953	809.0377197265625	968.1290893554688	-491.1246337890625	833.8016357421875	963.8726806640624	-214.6851348876953	851.8759765625	917.95751953125	-466.6658325195312	663.6364135742188	377.4340515136719	-413.527587890625	857.6619873046875	920.1078491210938	-233.3799896240234	739.5479736328125	855.1231079101562	-522.9530639648438	706.999755859375	850.9022827148438	-184.9638366699219	681.22216796875	966.6940307617188	-357.1835021972656	946.9983520507812	708.3721313476562	-527.5264282226562	836.5795288085938	480.6139526367188	-495.5101013183594	890.5887451171875	655.6204833984375	-515.6796264648438	1018.5849609375	639.44873046875	-513.0018310546875	482.1083679199219	61.0379638671875	-239.0161590576172	915.602783203125	538.11328125	-514.3832397460938	958.4183349609376	587.4723510742188	-500.370361328125	787.271484375	615.3580932617188	-203.8887176513672	813.76904296875	166.9592895507812	-444.9892883300781	712.6134643554688	635.7960205078125	-190.5234832763672	760.8399658203125	523.8734130859375	-239.6582641601562	681.552978515625	542.345703125	-217.6545257568359	1006.145629882812	561.584716796875	-513.7127075195312	680.8217163085938	466.8390808105469	-230.4010772705078	965.483154296875	473.6509704589844	-506.2134094238281	883.8392333984375	414.8429870605469	-489.9691467285156	632.9220581054688	351.4870910644531	-232.7810363769531	755.6742553710938	210.0453796386719	-505.9110412597656	564.93359375	401.9983215332031	-219.3241577148438	646.941650390625	351.7242431640625	-392.0677490234375	563.43701171875	275.2893981933594	-249.0865478515625	506.0136413574219	327.3630981445312	-234.7132568359375	721.6103515625	350.0803527832031	-476.2705383300781	415.0315551757812	174.8993225097656	-262.4768371582031	552.502685546875	46.13177490234375	-305.0186462402344	345.6399536132812	178.8411560058594	-315.7983093261719	344.1801452636719	146.2519073486328	-344.5191040039062	332.3399658203125	154.6544189453125	-289.1458129882812	638.89599609375	357.2606201171875	-448.1332397460938
